<?xml version="1.0" standalone="no"?>
<!DOCTYPE svg PUBLIC "-//W3C//DTD SVG 20010904//EN"
 "http://www.w3.org/TR/2001/REC-SVG-20010904/DTD/svg10.dtd">
<svg version="1.0" xmlns="http://www.w3.org/2000/svg"
 width="1280.000000pt" height="1244.000000pt" viewBox="0 0 1280.000000 1244.000000"
 preserveAspectRatio="xMidYMid meet">
<metadata>
Created by potrace 1.15, written by Peter Selinger 2001-2017
</metadata>
<g transform="translate(0.000000,1244.000000) scale(0.100000,-0.100000)"
fill="#FFFFFF" stroke="none">
<path d="M9750 12429 c-30 -6 -103 -8 -162 -5 -159 8 -359 -27 -678 -120 -288
-84 -508 -227 -892 -582 -86 -78 -195 -175 -244 -213 -169 -135 -235 -194
-301 -269 -77 -88 -209 -286 -229 -344 -33 -92 -82 -152 -240 -291 -50 -44
-122 -116 -159 -160 -125 -145 -252 -262 -407 -373 -171 -123 -311 -249 -475
-427 -143 -155 -233 -242 -418 -405 -172 -152 -547 -504 -745 -701 -135 -133
-222 -237 -457 -545 -67 -87 -172 -217 -234 -289 -141 -164 -215 -259 -319
-410 -46 -66 -126 -173 -179 -239 -190 -234 -322 -420 -479 -671 -279 -448
-694 -1322 -762 -1605 -10 -41 -28 -116 -39 -167 -12 -50 -40 -149 -62 -220
-76 -241 -81 -275 -83 -511 -2 -199 -1 -214 17 -223 42 -23 124 15 234 109
112 94 110 94 77 32 -33 -62 -171 -207 -258 -270 -72 -52 -183 -108 -301 -150
-255 -92 -436 -227 -579 -435 -89 -129 -208 -244 -354 -343 -114 -78 -414
-332 -520 -442 -53 -55 -241 -299 -320 -416 -98 -146 -189 -355 -180 -415 6
-45 31 -46 118 -4 103 50 116 45 114 -46 -1 -35 -5 -103 -9 -151 -8 -84 -7
-87 18 -112 40 -40 83 -35 192 23 168 91 212 75 255 -95 20 -79 30 -101 53
-118 36 -27 53 -16 93 57 43 81 47 84 89 64 26 -12 52 -43 99 -114 90 -138
141 -183 208 -183 28 0 43 10 87 55 29 29 60 56 69 59 103 28 213 48 236 42
37 -9 66 -60 66 -116 0 -49 -10 -86 -63 -230 -73 -200 -56 -280 65 -296 58 -8
134 19 303 106 203 104 344 142 408 109 12 -7 40 -26 63 -44 62 -51 99 -50
180 4 79 53 199 175 287 293 39 53 140 207 222 342 83 136 177 284 210 331
128 180 310 395 363 431 368 247 476 310 677 394 138 57 196 69 378 76 137 6
162 10 184 27 25 20 28 49 9 97 -5 13 9 19 76 32 201 40 245 43 316 25 140
-36 215 -10 275 96 51 91 133 88 211 -8 51 -62 104 -93 184 -111 90 -19 149
-18 278 6 194 34 366 53 439 47 39 -3 111 -19 161 -35 118 -38 273 -57 351
-42 113 20 280 69 343 99 l63 31 121 -119 c67 -65 202 -192 301 -281 276 -250
494 -460 572 -552 118 -138 169 -228 130 -228 -7 0 -58 14 -112 31 -134 43
-171 43 -229 2 -76 -54 -115 -46 -247 52 -84 63 -194 115 -243 115 -60 0 -208
-150 -262 -265 -28 -58 -30 -88 -9 -105 26 -21 144 27 173 71 39 59 59 75 112
87 75 17 149 14 198 -8 47 -21 50 -32 27 -98 -19 -54 -9 -77 48 -103 98 -44
328 -8 523 82 49 22 113 50 142 61 29 11 66 31 83 46 l32 26 23 -29 c96 -120
177 -375 178 -560 0 -81 -4 -98 -34 -165 -56 -127 -38 -218 50 -251 74 -28
104 -74 125 -193 3 -21 18 -50 31 -63 22 -22 32 -25 67 -20 74 10 126 99 113
192 -8 57 -87 267 -140 374 -25 50 -46 98 -46 106 0 29 30 28 94 -4 85 -42
171 -124 180 -174 8 -41 125 -279 153 -312 30 -35 96 -75 124 -75 41 0 53 22
45 83 -13 96 -94 270 -214 457 -59 93 -110 150 -160 181 -42 27 -107 112 -183
241 -117 197 -334 468 -377 468 -35 0 -251 206 -602 575 -136 143 -309 316
-384 384 l-136 124 113 79 c61 43 177 118 257 165 207 122 324 201 420 286
102 89 163 165 218 272 61 117 156 232 274 329 141 116 237 233 360 439 62
102 219 325 409 579 193 259 272 397 435 759 138 308 326 807 390 1037 29 102
37 155 45 272 5 80 17 183 27 230 45 201 72 341 83 425 7 57 13 327 16 740 5
665 -1 857 -33 960 -17 57 -18 164 -3 255 5 36 42 161 80 278 82 248 155 400
281 584 47 68 110 165 143 216 32 52 93 131 136 177 70 74 88 86 157 113 103
41 133 49 227 62 121 17 449 88 534 116 142 46 181 71 224 144 74 129 73 127
54 163 -23 42 -70 72 -137 88 -34 8 -184 15 -400 19 -194 4 -363 12 -386 18
-39 11 -145 73 -347 204 -118 76 -189 132 -384 303 -161 141 -253 200 -365
234 -147 44 -214 73 -288 121 -84 55 -214 102 -350 126 -110 19 -310 26 -380
13z"/>
</g>
</svg>
